<svg width="32" height="32" viewBox="0 0 32 32" fill="none" xmlns="http://www.w3.org/2000/svg">
<path d="M24.4375 16.9375V2.8125C24.4375 1.258 23.119 0 21.5625 0H8.43738C8.19969 0 7.95519 0.094 7.77187 0.277375L0.271875 7.83988C0.0995625 8.01356 0 8.25513 0 8.5V29.1875C0 30.7383 1.26169 32 2.8125 32C4.79037 32 5.44712 32 5.44431 32C8.3195 32 13.9771 32 24.4375 32C28.5771 32 32 28.5916 32 24.4375C32 20.302 28.6075 16.9375 24.4375 16.9375ZM7.5 3.21419V7.5625H3.18762L7.5 3.21419ZM2.8125 30.125C2.29556 30.125 1.875 29.7044 1.875 29.1875V9.4375H8.4375C8.95525 9.4375 9.375 9.01775 9.375 8.5V1.875H21.5625C22.0952 1.875 22.5625 2.31306 22.5625 2.8125V17.1709C20.5726 17.6762 18.8964 18.9662 17.8902 20.6875H4.6875C4.16975 20.6875 3.75 21.1073 3.75 21.625C3.75 22.1427 4.16975 22.5625 4.6875 22.5625H17.1143C16.9581 23.162 16.875 23.7903 16.875 24.4375H4.6875C4.16975 24.4375 3.75 24.8573 3.75 25.375C3.75 25.8927 4.16975 26.3125 4.6875 26.3125H17.1128C17.4917 27.7786 18.3111 29.0999 19.4804 30.125H2.8125ZM24.4375 30.125C21.3546 30.125 18.75 27.5204 18.75 24.4375C18.75 21.3359 21.3014 18.8125 24.4375 18.8125C27.5736 18.8125 30.125 21.3359 30.125 24.4375C30.125 27.5204 27.5204 30.125 24.4375 30.125Z" fill="#8B8B8B"/>
</svg>
