<svg width="183" height="25" viewBox="0 0 183 25" fill="none" xmlns="http://www.w3.org/2000/svg">
<path d="M1.332 7.224C1.164 6.96 1.008 6.6 0.864 6.144C0.72 5.688 0.648 5.208 0.648 4.704C0.648 3.768 0.852 3.096 1.26 2.688C1.692 2.28 2.244 2.076 2.916 2.076H18.612C18.78 2.34 18.936 2.7 19.08 3.156C19.224 3.612 19.296 4.092 19.296 4.596C19.296 5.532 19.08 6.204 18.648 6.612C18.24 7.02 17.7 7.224 17.028 7.224H13.032V23.856C12.768 23.928 12.348 24 11.772 24.072C11.22 24.144 10.668 24.18 10.116 24.18C9.564 24.18 9.072 24.132 8.64 24.036C8.232 23.964 7.884 23.82 7.596 23.604C7.308 23.388 7.092 23.088 6.948 22.704C6.804 22.32 6.732 21.816 6.732 21.192V7.224H1.332ZM28.9834 24.576C27.5674 24.576 26.2474 24.384 25.0234 24C23.8234 23.592 22.7674 22.992 21.8554 22.2C20.9674 21.408 20.2594 20.412 19.7314 19.212C19.2274 18.012 18.9754 16.608 18.9754 15C18.9754 13.416 19.2274 12.06 19.7314 10.932C20.2594 9.78 20.9434 8.844 21.7834 8.124C22.6234 7.38 23.5834 6.84 24.6634 6.504C25.7434 6.144 26.8474 5.964 27.9754 5.964C29.2474 5.964 30.3994 6.156 31.4314 6.54C32.4874 6.924 33.3874 7.452 34.1314 8.124C34.8994 8.796 35.4874 9.6 35.8954 10.536C36.3274 11.472 36.5434 12.492 36.5434 13.596C36.5434 14.412 36.3154 15.036 35.8594 15.468C35.4034 15.9 34.7674 16.176 33.9514 16.296L25.0594 17.628C25.3234 18.42 25.8634 19.02 26.6794 19.428C27.4954 19.812 28.4314 20.004 29.4874 20.004C30.4714 20.004 31.3954 19.884 32.2594 19.644C33.1474 19.38 33.8674 19.08 34.4194 18.744C34.8034 18.984 35.1274 19.32 35.3914 19.752C35.6554 20.184 35.7874 20.64 35.7874 21.12C35.7874 22.2 35.2834 23.004 34.2754 23.532C33.5074 23.94 32.6434 24.216 31.6834 24.36C30.7234 24.504 29.8234 24.576 28.9834 24.576ZM27.9754 10.428C27.3994 10.428 26.8954 10.524 26.4634 10.716C26.0554 10.908 25.7194 11.16 25.4554 11.472C25.1914 11.76 24.9874 12.096 24.8434 12.48C24.7234 12.84 24.6514 13.212 24.6274 13.596L30.7834 12.588C30.7114 12.108 30.4474 11.628 29.9914 11.148C29.5354 10.668 28.8634 10.428 27.9754 10.428ZM45.7172 23.964C45.4532 24.012 45.0572 24.072 44.5292 24.144C44.0252 24.24 43.5092 24.288 42.9812 24.288C42.4532 24.288 41.9732 24.252 41.5412 24.18C41.1332 24.108 40.7852 23.964 40.4972 23.748C40.2092 23.532 39.9812 23.244 39.8132 22.884C39.6692 22.5 39.5972 22.008 39.5972 21.408V0.528C39.8612 0.479999 40.2452 0.419999 40.7492 0.348C41.2772 0.252 41.8052 0.204 42.3332 0.204C42.8612 0.204 43.3292 0.239999 43.7372 0.311998C44.1692 0.383999 44.5292 0.527999 44.8172 0.743999C45.1052 0.959999 45.3212 1.26 45.4652 1.644C45.6332 2.004 45.7172 2.484 45.7172 3.084V23.964ZM58.831 24.576C57.415 24.576 56.095 24.384 54.871 24C53.671 23.592 52.615 22.992 51.703 22.2C50.815 21.408 50.107 20.412 49.579 19.212C49.075 18.012 48.823 16.608 48.823 15C48.823 13.416 49.075 12.06 49.579 10.932C50.107 9.78 50.791 8.844 51.631 8.124C52.471 7.38 53.431 6.84 54.511 6.504C55.591 6.144 56.695 5.964 57.823 5.964C59.095 5.964 60.247 6.156 61.279 6.54C62.335 6.924 63.235 7.452 63.979 8.124C64.747 8.796 65.335 9.6 65.743 10.536C66.175 11.472 66.391 12.492 66.391 13.596C66.391 14.412 66.163 15.036 65.707 15.468C65.251 15.9 64.615 16.176 63.799 16.296L54.907 17.628C55.171 18.42 55.711 19.02 56.527 19.428C57.343 19.812 58.279 20.004 59.335 20.004C60.319 20.004 61.243 19.884 62.107 19.644C62.995 19.38 63.715 19.08 64.267 18.744C64.651 18.984 64.975 19.32 65.239 19.752C65.503 20.184 65.635 20.64 65.635 21.12C65.635 22.2 65.131 23.004 64.123 23.532C63.355 23.94 62.491 24.216 61.531 24.36C60.571 24.504 59.671 24.576 58.831 24.576ZM57.823 10.428C57.247 10.428 56.743 10.524 56.311 10.716C55.903 10.908 55.567 11.16 55.303 11.472C55.039 11.76 54.835 12.096 54.691 12.48C54.571 12.84 54.499 13.212 54.475 13.596L60.631 12.588C60.559 12.108 60.295 11.628 59.839 11.148C59.383 10.668 58.711 10.428 57.823 10.428ZM69.2288 17.304C69.0608 17.04 68.9048 16.692 68.7608 16.26C68.6168 15.828 68.5448 15.372 68.5448 14.892C68.5448 14.004 68.7488 13.368 69.1568 12.984C69.5648 12.576 70.0928 12.372 70.7408 12.372H78.4448C78.5888 12.636 78.7328 12.984 78.8768 13.416C79.0448 13.848 79.1288 14.304 79.1288 14.784C79.1288 15.672 78.9248 16.32 78.5168 16.728C78.1088 17.112 77.5808 17.304 76.9328 17.304H69.2288ZM88.7954 16.944V23.856C88.5314 23.928 88.1114 24 87.5354 24.072C86.9834 24.144 86.4314 24.18 85.8794 24.18C85.3274 24.18 84.8354 24.132 84.4034 24.036C83.9954 23.964 83.6474 23.82 83.3594 23.604C83.0954 23.388 82.8914 23.088 82.7474 22.704C82.6034 22.32 82.5314 21.816 82.5314 21.192V4.236C82.5314 3.732 82.6634 3.348 82.9274 3.084C83.2154 2.796 83.5994 2.568 84.0794 2.4C84.8954 2.112 85.8434 1.908 86.9234 1.788C88.0034 1.644 89.1554 1.572 90.3794 1.572C93.6914 1.572 96.1874 2.268 97.8674 3.66C99.5474 5.052 100.387 6.936 100.387 9.312C100.387 10.8 100.003 12.072 99.2354 13.128C98.4674 14.184 97.5554 15 96.4994 15.576C97.3634 16.752 98.2154 17.856 99.0554 18.888C99.8954 19.92 100.555 20.856 101.035 21.696C100.795 22.536 100.351 23.184 99.7034 23.64C99.0794 24.072 98.3714 24.288 97.5794 24.288C97.0514 24.288 96.5954 24.228 96.2114 24.108C95.8274 23.988 95.4914 23.82 95.2034 23.604C94.9154 23.388 94.6514 23.124 94.4114 22.812C94.1714 22.5 93.9434 22.164 93.7274 21.804L90.7034 16.944H88.7954ZM91.0634 12.156C91.9754 12.156 92.6954 11.928 93.2234 11.472C93.7514 10.992 94.0154 10.296 94.0154 9.384C94.0154 8.472 93.7154 7.788 93.1154 7.332C92.5394 6.852 91.6154 6.612 90.3434 6.612C89.9834 6.612 89.6954 6.624 89.4794 6.648C89.2634 6.672 89.0234 6.708 88.7594 6.756V12.156H91.0634ZM112.726 24.576C111.31 24.576 109.99 24.384 108.766 24C107.566 23.592 106.51 22.992 105.598 22.2C104.71 21.408 104.002 20.412 103.474 19.212C102.97 18.012 102.718 16.608 102.718 15C102.718 13.416 102.97 12.06 103.474 10.932C104.002 9.78 104.686 8.844 105.526 8.124C106.366 7.38 107.326 6.84 108.406 6.504C109.486 6.144 110.59 5.964 111.718 5.964C112.99 5.964 114.142 6.156 115.174 6.54C116.23 6.924 117.13 7.452 117.874 8.124C118.642 8.796 119.23 9.6 119.638 10.536C120.07 11.472 120.286 12.492 120.286 13.596C120.286 14.412 120.058 15.036 119.602 15.468C119.146 15.9 118.51 16.176 117.694 16.296L108.802 17.628C109.066 18.42 109.606 19.02 110.422 19.428C111.238 19.812 112.174 20.004 113.23 20.004C114.214 20.004 115.138 19.884 116.002 19.644C116.89 19.38 117.61 19.08 118.162 18.744C118.546 18.984 118.87 19.32 119.134 19.752C119.398 20.184 119.53 20.64 119.53 21.12C119.53 22.2 119.026 23.004 118.018 23.532C117.25 23.94 116.386 24.216 115.426 24.36C114.466 24.504 113.566 24.576 112.726 24.576ZM111.718 10.428C111.142 10.428 110.638 10.524 110.206 10.716C109.798 10.908 109.462 11.16 109.198 11.472C108.934 11.76 108.73 12.096 108.586 12.48C108.466 12.84 108.394 13.212 108.37 13.596L114.526 12.588C114.454 12.108 114.19 11.628 113.734 11.148C113.278 10.668 112.606 10.428 111.718 10.428ZM140.511 23.964C140.271 24.036 139.887 24.108 139.359 24.18C138.855 24.252 138.327 24.288 137.775 24.288C137.247 24.288 136.767 24.252 136.335 24.18C135.927 24.108 135.579 23.964 135.291 23.748C135.003 23.532 134.775 23.244 134.607 22.884C134.463 22.5 134.391 22.008 134.391 21.408V13.416C134.391 12.432 134.139 11.748 133.635 11.364C133.155 10.956 132.555 10.752 131.835 10.752C131.355 10.752 130.899 10.812 130.467 10.932C130.035 11.052 129.687 11.196 129.423 11.364V23.964C129.183 24.036 128.799 24.108 128.271 24.18C127.767 24.252 127.239 24.288 126.687 24.288C126.159 24.288 125.679 24.252 125.247 24.18C124.839 24.108 124.491 23.964 124.203 23.748C123.915 23.532 123.687 23.244 123.519 22.884C123.375 22.5 123.303 22.008 123.303 21.408V0.528C123.567 0.479999 123.951 0.419999 124.455 0.348C124.983 0.252 125.511 0.204 126.039 0.204C126.567 0.204 127.035 0.239999 127.443 0.311998C127.875 0.383999 128.235 0.527999 128.523 0.743999C128.811 0.959999 129.027 1.26 129.171 1.644C129.339 2.004 129.423 2.484 129.423 3.084V6.612C129.735 6.492 130.203 6.36 130.827 6.216C131.475 6.048 132.183 5.964 132.951 5.964C135.327 5.964 137.175 6.564 138.495 7.764C139.839 8.94 140.511 10.704 140.511 13.056V23.964ZM151.778 20.112C152.186 20.112 152.63 20.076 153.11 20.004C153.614 19.908 153.986 19.788 154.226 19.644V16.764L151.634 16.98C150.962 17.028 150.41 17.172 149.978 17.412C149.546 17.652 149.33 18.012 149.33 18.492C149.33 18.972 149.51 19.368 149.87 19.68C150.254 19.968 150.89 20.112 151.778 20.112ZM151.49 5.964C152.786 5.964 153.962 6.096 155.018 6.36C156.098 6.624 157.01 7.032 157.754 7.584C158.522 8.112 159.11 8.796 159.518 9.636C159.926 10.452 160.13 11.424 160.13 12.552V20.616C160.13 21.24 159.95 21.756 159.59 22.164C159.254 22.548 158.846 22.884 158.366 23.172C156.806 24.108 154.61 24.576 151.778 24.576C150.506 24.576 149.354 24.456 148.322 24.216C147.314 23.976 146.438 23.616 145.694 23.136C144.974 22.656 144.41 22.044 144.002 21.3C143.618 20.556 143.426 19.692 143.426 18.708C143.426 17.052 143.918 15.78 144.902 14.892C145.886 14.004 147.41 13.452 149.474 13.236L154.19 12.732V12.48C154.19 11.784 153.878 11.292 153.254 11.004C152.654 10.692 151.778 10.536 150.626 10.536C149.714 10.536 148.826 10.632 147.962 10.824C147.098 11.016 146.318 11.256 145.622 11.544C145.31 11.328 145.046 11.004 144.83 10.572C144.614 10.116 144.506 9.648 144.506 9.168C144.506 8.544 144.65 8.052 144.938 7.692C145.25 7.308 145.718 6.984 146.342 6.72C147.038 6.456 147.854 6.264 148.79 6.144C149.75 6.024 150.65 5.964 151.49 5.964ZM163.944 0.563999C164.184 0.491999 164.568 0.419999 165.096 0.348C165.624 0.252 166.164 0.204 166.716 0.204C167.244 0.204 167.712 0.239999 168.12 0.311998C168.552 0.383999 168.912 0.527999 169.2 0.743999C169.488 0.959999 169.704 1.26 169.848 1.644C169.992 2.004 170.064 2.484 170.064 3.084V6.612C170.664 6.372 171.228 6.204 171.756 6.108C172.308 6.012 172.908 5.964 173.556 5.964C174.708 5.964 175.8 6.168 176.832 6.576C177.864 6.984 178.776 7.584 179.568 8.376C180.36 9.144 180.984 10.104 181.44 11.256C181.896 12.408 182.124 13.74 182.124 15.252C182.124 16.812 181.884 18.18 181.404 19.356C180.948 20.508 180.3 21.468 179.46 22.236C178.62 23.004 177.588 23.592 176.364 24C175.164 24.384 173.832 24.576 172.368 24.576C170.784 24.576 169.44 24.384 168.336 24C167.232 23.64 166.296 23.184 165.528 22.632C164.472 21.888 163.944 20.928 163.944 19.752V0.563999ZM172.368 19.752C173.472 19.752 174.324 19.38 174.924 18.636C175.548 17.868 175.86 16.74 175.86 15.252C175.86 13.74 175.548 12.612 174.924 11.868C174.3 11.124 173.46 10.752 172.404 10.752C171.924 10.752 171.504 10.8 171.144 10.896C170.808 10.992 170.436 11.136 170.028 11.328V19.176C170.292 19.344 170.604 19.488 170.964 19.608C171.348 19.704 171.816 19.752 172.368 19.752Z" fill="black"/>
</svg>
